<?xml version="1.0" standalone="no"?>
<!DOCTYPE svg PUBLIC "-//W3C//DTD SVG 20010904//EN"
 "http://www.w3.org/TR/2001/REC-SVG-20010904/DTD/svg10.dtd">
<svg version="1.0" xmlns="http://www.w3.org/2000/svg"
 width="2000.000000pt" height="2000.000000pt" viewBox="0 0 2000.000000 2000.000000"
 preserveAspectRatio="xMidYMid meet">

<g transform="translate(0.000000,2000.000000) scale(0.100000,-0.100000)"
fill="#000000" stroke="none">
<path d="M18230 12975 c-78 -9 -300 -58 -694 -154 -318 -77 -580 -142 -581
-143 -2 -2 -5 -34 -6 -72 l-4 -69 115 -44 c249 -94 531 -250 576 -318 12 -18
14 -123 12 -702 l-3 -679 -150 66 c-408 181 -617 234 -915 234 -405 0 -728
-97 -1051 -312 -287 -192 -503 -447 -665 -787 -138 -289 -202 -573 -211 -936
-11 -416 46 -694 203 -999 87 -168 178 -294 304 -420 317 -317 720 -479 1191
-480 445 0 817 168 1187 537 73 73 134 127 136 120 3 -6 9 -111 15 -232 7
-121 14 -260 18 -309 l6 -88 176 5 c160 6 223 14 696 94 l520 88 3 113 c2 86
0 112 -10 112 -52 0 -206 24 -268 41 -196 55 -323 146 -372 266 l-23 58 -3
2513 -2 2512 -43 -1 c-23 -1 -94 -7 -157 -14z m-1445 -2230 c120 -30 308 -120
410 -197 164 -123 289 -277 355 -435 39 -92 75 -263 89 -423 7 -67 11 -408 11
-821 l0 -707 -68 -78 c-285 -330 -681 -481 -1097 -419 -240 36 -416 126 -595
305 -215 215 -353 488 -424 840 -124 609 26 1264 378 1646 113 123 280 236
414 279 160 51 350 55 527 10z"/>
<path d="M1060 12576 l0 -104 83 -32 c45 -17 169 -58 276 -92 237 -73 311
-107 372 -169 56 -57 101 -158 126 -280 15 -77 17 -235 20 -1928 4 -2008 6
-1943 -52 -2065 -34 -71 -130 -177 -208 -227 -78 -51 -223 -106 -445 -171
l-184 -53 6 -29 c3 -16 6 -64 6 -107 l0 -79 1359 0 1358 0 6 68 c4 37 7 86 7
109 l0 42 -78 25 c-119 37 -190 55 -392 96 -102 21 -210 47 -241 59 -140 54
-205 188 -229 478 -6 72 -10 930 -10 2184 0 1959 1 2067 18 2074 9 4 139 9
287 12 367 7 598 -18 900 -101 242 -66 462 -186 625 -343 177 -168 268 -333
317 -575 21 -102 24 -422 4 -543 -57 -363 -214 -608 -485 -760 -202 -113 -500
-167 -1001 -183 -290 -9 -315 -16 -315 -78 0 -28 8 -43 33 -67 116 -109 615
-216 942 -201 368 16 722 100 990 235 316 159 569 421 698 722 80 186 116 361
124 609 12 345 -54 610 -210 843 -95 143 -319 322 -542 432 -267 133 -497 197
-875 242 -445 54 -686 61 -2052 61 l-1238 0 0 -104z"/>
<path d="M11645 11100 c-268 -29 -540 -117 -774 -252 -515 -296 -847 -786
-938 -1384 -23 -154 -23 -472 0 -624 59 -385 213 -717 467 -1007 267 -306 657
-536 1065 -627 351 -79 747 -58 1090 56 953 317 1479 1285 1269 2336 -156 782
-758 1345 -1584 1482 -141 24 -462 34 -595 20z m433 -299 c157 -46 291 -131
428 -273 209 -217 349 -490 444 -862 157 -616 122 -1273 -88 -1656 -170 -310
-388 -465 -723 -514 -246 -37 -436 -2 -631 115 -96 57 -284 245 -365 364 -197
291 -330 672 -377 1085 -18 156 -21 484 -5 628 65 600 359 1008 800 1111 123
29 130 30 294 26 116 -2 167 -8 223 -24z"/>
<path d="M8735 11083 c-200 -31 -386 -122 -536 -260 -107 -99 -260 -305 -345
-462 -23 -43 -30 -50 -35 -35 -4 11 -19 163 -33 339 -15 176 -29 339 -32 363
l-6 42 -116 0 -115 0 -551 -147 c-303 -80 -554 -149 -557 -152 -4 -3 -9 -36
-11 -73 l-4 -67 144 -46 c196 -64 366 -150 448 -228 l65 -60 -4 -1191 c-3
-1300 0 -1231 -61 -1358 -53 -112 -142 -162 -438 -245 -110 -30 -138 -42 -142
-58 -8 -27 -7 -88 0 -152 l7 -53 1082 0 1082 0 6 68 c4 37 7 83 7 102 l0 36
-105 12 c-319 38 -523 168 -604 387 -47 126 -51 206 -51 1158 l0 888 105 169
c188 301 264 388 401 456 126 63 251 57 323 -15 20 -20 68 -82 108 -137 123
-174 204 -226 347 -227 116 -1 205 64 279 201 52 97 90 249 82 324 -19 165
-182 334 -385 399 -49 16 -97 22 -195 24 -71 2 -143 1 -160 -2z"/>
</g>
</svg>
