<?xml version="1.0" standalone="no"?>
<!DOCTYPE svg PUBLIC "-//W3C//DTD SVG 20010904//EN"
 "http://www.w3.org/TR/2001/REC-SVG-20010904/DTD/svg10.dtd">
<svg version="1.0" xmlns="http://www.w3.org/2000/svg"
 width="2000.000000pt" height="2000.000000pt" viewBox="0 0 2000.000000 2000.000000"
 preserveAspectRatio="xMidYMid meet">

<g transform="translate(0.000000,2000.000000) scale(0.100000,-0.100000)"
fill="#000000" stroke="none">
<path d="M2860 12613 c0 -38 -3 -84 -6 -104 l-6 -35 229 -66 c265 -77 365
-113 451 -166 187 -113 222 -187 252 -537 6 -76 10 -756 10 -1867 0 -1920 3
-1837 -61 -1966 -43 -87 -140 -182 -232 -226 -72 -35 -265 -93 -515 -156
l-134 -34 6 -36 c3 -19 6 -68 6 -107 l0 -73 1568 0 c930 0 1628 4 1717 10 642
43 1167 217 1625 539 781 548 1192 1463 1109 2468 -54 665 -266 1137 -695
1553 -182 177 -362 304 -609 430 -468 240 -1087 387 -1800 430 -100 6 -736 10
-1542 10 l-1373 0 0 -67z m2855 -263 c344 -28 685 -119 949 -251 671 -337
1073 -937 1195 -1784 153 -1053 -183 -1952 -909 -2432 -241 -160 -486 -249
-815 -298 -238 -36 -836 -27 -997 14 -223 57 -344 188 -416 447 l-27 99 -3
2108 -2 2107 452 0 c249 0 507 -5 573 -10z"/>
<path d="M11264 11100 c-199 -22 -410 -87 -592 -180 -300 -153 -520 -348 -704
-625 -171 -256 -274 -526 -324 -845 -23 -143 -25 -518 -5 -655 76 -519 305
-955 644 -1228 258 -208 508 -322 839 -383 132 -25 439 -30 583 -9 137 19 354
72 453 111 343 135 601 343 720 580 l31 61 -59 58 -58 58 -174 -86 c-307 -153
-540 -209 -863 -209 -247 1 -452 47 -662 149 -369 179 -628 557 -708 1033 -19
111 -36 394 -28 462 l6 48 1318 0 1319 0 0 68 c0 129 -61 458 -115 619 -82
245 -234 476 -413 629 -193 164 -421 274 -679 324 -120 24 -404 35 -529 20z
m331 -298 c235 -75 402 -260 495 -549 36 -111 67 -267 78 -386 l8 -88 -29 -15
c-15 -8 -68 -24 -117 -35 -74 -16 -213 -24 -802 -49 -392 -16 -743 -31 -780
-33 -66 -3 -68 -2 -68 22 0 49 52 276 86 374 80 229 181 397 324 538 133 132
249 199 405 235 86 20 320 12 400 -14z"/>
<path d="M13210 10891 l0 -110 58 -21 c31 -12 94 -35 139 -50 169 -58 225
-106 307 -261 25 -46 340 -795 701 -1664 361 -869 663 -1587 671 -1595 31 -32
233 -22 247 13 94 234 1331 3074 1364 3130 32 55 80 114 143 178 90 91 102 99
235 163 77 38 159 78 183 90 l42 21 0 92 c0 50 -3 98 -6 107 -6 14 -84 16
-780 16 l-774 0 0 -118 0 -119 58 -13 c100 -22 280 -91 341 -130 159 -103 179
-238 78 -528 -19 -53 -195 -488 -392 -967 -196 -478 -361 -881 -367 -895 -8
-22 -11 -23 -19 -8 -16 28 -811 1989 -840 2073 -16 44 -29 100 -29 125 0 61
38 138 85 175 51 38 182 94 331 141 65 20 121 38 123 40 2 2 -2 53 -9 114
l-14 110 -938 0 -938 0 0 -109z"/>
</g>
</svg>
